<svg viewBox="0 0 512 512" xmlns="http://www.w3.org/2000/svg">
	<path d="M138.63 30.6C196.3 2.61 264.04-3.28 325.93 13.03c61.69 16.08 117.38 55.52 151.26 109.74 21.45 33.98 33.4 73.7 34.81 113.83v13.79c-1.27 35.75-10.76 71.22-28.1 102.55-16.6 30.23-39.97 56.6-67.48 77.34-33.92 25.66-74.28 42.6-116.25 49.29-38.56 6.27-78.43 4.24-116.13-5.99-24.16 11.24-48.28 22.59-72.47 33.75-6.07 3.27-14.11-1.45-14.38-8.27-2.12-24.07-4.1-48.16-6.16-72.24-26.89-21.28-49.59-48-65.37-78.5C9.88 318.18 1.24 284.46 0 250.48V236.6c1.51-46.34 17.44-92.06 45.3-129.13 24.16-32.78 56.71-59.17 93.33-76.87m29.27 9.34C124.28 56.22 85.34 85.4 58.51 123.56c-18.94 26.77-31.65 57.98-36.38 90.45-5.47 37.44-.33 76.34 14.66 111.07 14.37 33.59 37.66 63.13 66.3 85.71 3.15 2.41 6.94 5 7.36 9.31 1.97 21.04 3.59 42.11 5.44 63.15 21.1-9.74 42.1-19.66 63.2-29.39 3.91-1.92 8.2-.13 12.1.87 60.09 16.03 126.21 9.03 181.2-20.21 33.07-17.55 62.15-42.89 83.17-73.95 26.22-38.19 39.34-85.29 35.91-131.55-3.26-47.8-24.16-93.78-56.8-128.68-25.59-27.66-58.07-48.76-93.49-61.52C285.7 18.75 223.1 19.11 167.9 39.94z"/>
	<path d="M203.82 151.84c6.25-6.99 17.96-7.83 25.14-1.79 20.34 17.61 40.46 35.49 60.82 53.08 38.26-15.26 76.56-30.42 114.84-45.64 6.46-2.72 14.41-1.44 19.6 3.31 7.49 6.38 8.14 18.77 1.57 26.03-41.2 47.44-82.52 94.77-123.75 142.18-2.13 2.54-4.43 5.07-7.44 6.57-6.53 3.52-15.12 2.49-20.67-2.4-20.02-17.45-39.94-35.02-59.97-52.45-35.36 15.05-70.71 30.16-106.07 45.2-6.51 2.94-14.58 1.75-19.94-2.97-7.16-5.92-8.48-17.45-2.81-24.82 9.92-13.09 19.9-26.12 29.89-39.15 3.11-4.36 9.82-5.28 14-1.92 4.3 3.08 5.2 9.7 1.96 13.87-8.75 11.6-17.63 23.11-26.44 34.67 35.77-15.21 71.51-30.48 107.26-45.72 3.54-1.61 7.87-.84 10.74 1.76 21.14 18.45 42.22 36.98 63.36 55.42 40.33-46.33 80.68-92.64 121-138.98-38.1 15.12-76.17 30.29-114.28 45.39-3.75 1.85-8.54 1.53-11.66-1.41-21.15-18.5-42.31-37-63.44-55.54-10.17 11.47-20.16 23.11-30.36 34.55-3.29 3.83-9.56 4.42-13.49 1.24-4.42-3.21-5.22-10.18-1.57-14.27 10.52-12.11 21.1-24.18 31.71-36.21z"/>
	<path d="M148.2 220.24c6.64-2.55 14.3 3.76 13.09 10.76-.69 7.26-10.24 11.38-15.89 6.65-6.39-4.31-4.59-15.31 2.8-17.41z"/>
</svg>