<svg viewBox="0 0 512 512" xmlns="http://www.w3.org/2000/svg">
	<path d="M490.6 22.28c9.39-3.86 20.54 3.54 21.4 13.47v2.52c-27.55 138.71-55.63 277.31-83.34 415.98-.64 4.09-2.25 8.18-5.45 10.95-5.12 4.71-13.3 5.45-19.16 1.7-44.41-25.33-88.85-50.6-133.26-75.92-18.19 24.09-36.24 48.3-54.49 72.35-4.77 6.38-14.45 7.79-21.04 3.46-4.72-2.84-7.57-8.28-7.4-13.76-.06-47.34.01-94.67-.04-142.01-.41-5.44.89-11.32 5.17-15.03 22.4-19.94 44.94-39.72 67.29-59.72-36.95 21.37-73.79 42.92-110.73 64.3-4.67 2.85-10.75 3.1-15.62.6-41.61-20.76-83.25-41.5-124.87-62.24-4.99-2.34-8.38-7.32-9.06-12.75v-3.01c.6-5.76 4.26-11.17 9.72-13.33C169.99 147.28 330.31 84.81 490.6 22.28M55.36 226.36c28.51 13.96 56.86 28.27 85.29 42.39 81-47.07 161.99-94.15 242.97-141.25 3.12-1.83 6.85-2.83 10.45-2.13 8.38 1.29 14.74 9.96 13.52 18.34-.46 3.99-2.83 7.48-5.82 10.04-60.64 53.73-121.29 107.45-181.92 161.19-.01 30.16-.02 60.32 0 90.47 11.48-15.09 22.75-30.34 34.26-45.41 5.13-6.56 15.17-7.57 21.88-2.88 41.73 23.79 83.5 47.5 125.19 71.35 24.47-121.84 48.9-243.69 73.37-365.53-139.76 54.4-279.44 109-419.19 163.42z"/>
</svg>