<svg width="29pt" height="40" viewBox="0 0 29 30" xmlns="http://www.w3.org/2000/svg">
	<g fill="#b48b59">
		<path d="M12.63 0h3.41c3.72.45 8.28.98 10.37 4.55 3.2 5.5 3.19 13.11-.59 18.32-3.35 3.78-8.94 3.49-13.55 3.6-1.07 1.18-2.13 2.38-3.24 3.53H7.64c-.13-1.43-.25-2.86-.38-4.29C-.12 22.56-1.06 12.69 1.77 6.1 3.31 1.59 8.43.38 12.63 0M6.58 3.71C2.43 6.24 2.7 11.87 2.9 16.11c.07 3.37 2.14 6.4 5.3 7.59.05 1.89.08 3.77.14 5.66 1.43-1.63 2.82-3.29 4.16-4.98 3.62-.16 7.6-.08 10.75-2.13 3-2.45 2.92-6.72 2.91-10.25-.14-3.21-.87-7.35-4.31-8.61-4.86-1.69-10.54-1.86-15.27.32z"/>
		<path d="M6.54 8.87C7.32 7.65 8.29 6.57 9.65 6c.96 1.32 1.9 2.66 2.8 4.03l-1.85 2.09c.95 2.4 2.65 4.45 5.17 5.27.53-.47 1.58-1.42 2.11-1.89 1.41.98 2.71 2.1 3.9 3.33-.89.95-1.79 1.89-2.7 2.82-6.01-2-10.49-6.86-12.54-12.78z"/>
	</g>
</svg>